<mxfile>
    <diagram id="C5RBs43oDa-KdzZeNtuy" name="Page-1">
        <mxGraphModel dx="739" dy="545" grid="1" gridSize="10" guides="1" tooltips="1" connect="1" arrows="1" fold="1" page="1" pageScale="1" pageWidth="827" pageHeight="1169" math="0" shadow="0">
            <root>
                <mxCell id="WIyWlLk6GJQsqaUBKTNV-0"/>
                <mxCell id="WIyWlLk6GJQsqaUBKTNV-1" parent="WIyWlLk6GJQsqaUBKTNV-0"/>
                <mxCell id="2" value="" style="edgeStyle=orthogonalEdgeStyle;rounded=0;orthogonalLoop=1;jettySize=auto;html=1;" edge="1" parent="WIyWlLk6GJQsqaUBKTNV-1" source="WIyWlLk6GJQsqaUBKTNV-7" target="TVQA49H41wo21Bl08tr--13">
                    <mxGeometry relative="1" as="geometry"/>
                </mxCell>
                <mxCell id="WIyWlLk6GJQsqaUBKTNV-7" value="Ordenar bugs por prior asc; idade desc" style="rounded=1;whiteSpace=wrap;html=1;fontSize=12;glass=0;strokeWidth=1;shadow=0;fillColor=#dae8fc;strokeColor=#6c8ebf;fontColor=#000000;" parent="WIyWlLk6GJQsqaUBKTNV-1" vertex="1">
                    <mxGeometry x="540" y="400" width="120" height="40" as="geometry"/>
                </mxCell>
                <mxCell id="TVQA49H41wo21Bl08tr--5" value="" style="edgeStyle=orthogonalEdgeStyle;rounded=0;orthogonalLoop=1;jettySize=auto;html=1;" parent="WIyWlLk6GJQsqaUBKTNV-1" source="WIyWlLk6GJQsqaUBKTNV-12" target="TVQA49H41wo21Bl08tr--0" edge="1">
                    <mxGeometry relative="1" as="geometry"/>
                </mxCell>
                <mxCell id="WIyWlLk6GJQsqaUBKTNV-12" value="Converter prioridade em número" style="rounded=1;whiteSpace=wrap;html=1;fontSize=12;glass=0;strokeWidth=1;shadow=0;fillColor=#dae8fc;strokeColor=#6c8ebf;fontColor=#000000;" parent="WIyWlLk6GJQsqaUBKTNV-1" vertex="1">
                    <mxGeometry x="140" y="170" width="120" height="40" as="geometry"/>
                </mxCell>
                <mxCell id="-FxCyN68dRF82vUX0cnZ-8" style="edgeStyle=orthogonalEdgeStyle;rounded=0;orthogonalLoop=1;jettySize=auto;html=1;entryX=0.5;entryY=1;entryDx=0;entryDy=0;endArrow=block;endFill=0;exitX=0.5;exitY=0;exitDx=0;exitDy=0;" parent="WIyWlLk6GJQsqaUBKTNV-1" source="-FxCyN68dRF82vUX0cnZ-5" target="TVQA49H41wo21Bl08tr--10" edge="1">
                    <mxGeometry relative="1" as="geometry">
                        <mxPoint x="270" y="490" as="sourcePoint"/>
                        <mxPoint x="510" y="250" as="targetPoint"/>
                    </mxGeometry>
                </mxCell>
                <mxCell id="-FxCyN68dRF82vUX0cnZ-12" value="Sim" style="edgeLabel;html=1;align=center;verticalAlign=middle;resizable=0;points=[];" parent="-FxCyN68dRF82vUX0cnZ-8" vertex="1" connectable="0">
                    <mxGeometry x="-0.5454" y="-1" relative="1" as="geometry">
                        <mxPoint x="15" as="offset"/>
                    </mxGeometry>
                </mxCell>
                <mxCell id="-FxCyN68dRF82vUX0cnZ-10" style="edgeStyle=orthogonalEdgeStyle;rounded=0;orthogonalLoop=1;jettySize=auto;html=1;endArrow=block;endFill=0;entryX=0.5;entryY=0;entryDx=0;entryDy=0;exitX=0.5;exitY=1;exitDx=0;exitDy=0;" parent="WIyWlLk6GJQsqaUBKTNV-1" source="-FxCyN68dRF82vUX0cnZ-5" target="TVQA49H41wo21Bl08tr--11" edge="1">
                    <mxGeometry relative="1" as="geometry">
                        <mxPoint x="480" y="430" as="targetPoint"/>
                    </mxGeometry>
                </mxCell>
                <mxCell id="-FxCyN68dRF82vUX0cnZ-14" value="Não" style="edgeLabel;html=1;align=center;verticalAlign=middle;resizable=0;points=[];" parent="-FxCyN68dRF82vUX0cnZ-10" vertex="1" connectable="0">
                    <mxGeometry x="-0.2908" y="-1" relative="1" as="geometry">
                        <mxPoint x="16" y="1.5500000000000007" as="offset"/>
                    </mxGeometry>
                </mxCell>
                <mxCell id="-FxCyN68dRF82vUX0cnZ-5" value="Para cada bug:&lt;br&gt;Idade &amp;gt; limite?" style="rhombus;whiteSpace=wrap;html=1;fillColor=#fff2cc;strokeColor=#d6b656;fontColor=#000000;" parent="WIyWlLk6GJQsqaUBKTNV-1" vertex="1">
                    <mxGeometry x="300" y="225" width="110" height="110" as="geometry"/>
                </mxCell>
                <mxCell id="-FxCyN68dRF82vUX0cnZ-16" value="&lt;font&gt;&lt;font size=&quot;1&quot;&gt;Níveis de prioridade:&lt;/font&gt;&lt;br&gt;&lt;font style=&quot;font-size: 8px&quot;&gt;Crítico = 0&lt;br&gt;Normal = 1&lt;/font&gt;&lt;/font&gt;" style="shape=note;whiteSpace=wrap;html=1;backgroundOutline=1;darkOpacity=0.05;size=11;" parent="WIyWlLk6GJQsqaUBKTNV-1" vertex="1">
                    <mxGeometry x="40" y="155" width="50" height="70" as="geometry"/>
                </mxCell>
                <mxCell id="-FxCyN68dRF82vUX0cnZ-17" value="" style="endArrow=none;dashed=1;html=1;dashPattern=1 3;strokeWidth=2;entryX=0;entryY=0.5;entryDx=0;entryDy=0;" parent="WIyWlLk6GJQsqaUBKTNV-1" source="-FxCyN68dRF82vUX0cnZ-16" target="WIyWlLk6GJQsqaUBKTNV-12" edge="1">
                    <mxGeometry width="50" height="50" relative="1" as="geometry">
                        <mxPoint x="90" y="230" as="sourcePoint"/>
                        <mxPoint x="140" y="180" as="targetPoint"/>
                    </mxGeometry>
                </mxCell>
                <mxCell id="TVQA49H41wo21Bl08tr--21" value="" style="edgeStyle=orthogonalEdgeStyle;rounded=0;orthogonalLoop=1;jettySize=auto;html=1;" parent="WIyWlLk6GJQsqaUBKTNV-1" source="-FxCyN68dRF82vUX0cnZ-18" target="TVQA49H41wo21Bl08tr--19" edge="1">
                    <mxGeometry relative="1" as="geometry"/>
                </mxCell>
                <mxCell id="-FxCyN68dRF82vUX0cnZ-18" value="&lt;span&gt;&lt;font style=&quot;font-size: 11px&quot; color=&quot;#000000&quot;&gt;Recebe lista de bugs&lt;/font&gt;&lt;/span&gt;" style="ellipse;whiteSpace=wrap;html=1;aspect=fixed;fillColor=#d5e8d4;strokeColor=#82b366;" parent="WIyWlLk6GJQsqaUBKTNV-1" vertex="1">
                    <mxGeometry x="30" y="70" width="70" height="70" as="geometry"/>
                </mxCell>
                <mxCell id="-FxCyN68dRF82vUX0cnZ-19" value="&lt;span&gt;&lt;font style=&quot;font-size: 11px&quot;&gt;Imprime a hash para o usuário&lt;/font&gt;&lt;/span&gt;" style="ellipse;whiteSpace=wrap;html=1;aspect=fixed;fillColor=#f8cecc;strokeColor=#b85450;fontColor=#000000;" parent="WIyWlLk6GJQsqaUBKTNV-1" vertex="1">
                    <mxGeometry x="700" y="245" width="70" height="70" as="geometry"/>
                </mxCell>
                <mxCell id="-FxCyN68dRF82vUX0cnZ-21" value="&lt;font&gt;&lt;font size=&quot;1&quot;&gt;Idade limite&lt;/font&gt;&lt;br&gt;&lt;font style=&quot;font-size: 8px&quot;&gt;Crítico = 1 dia&lt;br&gt;Normal = 3 dias&lt;/font&gt;&lt;/font&gt;" style="shape=note;whiteSpace=wrap;html=1;backgroundOutline=1;darkOpacity=0.05;size=11;" parent="WIyWlLk6GJQsqaUBKTNV-1" vertex="1">
                    <mxGeometry x="30" y="255" width="81.5" height="50" as="geometry"/>
                </mxCell>
                <mxCell id="-FxCyN68dRF82vUX0cnZ-24" value="" style="endArrow=none;dashed=1;html=1;dashPattern=1 3;strokeWidth=2;entryX=0;entryY=0.5;entryDx=0;entryDy=0;" parent="WIyWlLk6GJQsqaUBKTNV-1" source="-FxCyN68dRF82vUX0cnZ-21" target="TVQA49H41wo21Bl08tr--0" edge="1">
                    <mxGeometry width="50" height="50" relative="1" as="geometry">
                        <mxPoint x="390" y="390" as="sourcePoint"/>
                        <mxPoint x="440" y="340" as="targetPoint"/>
                    </mxGeometry>
                </mxCell>
                <mxCell id="0" value="" style="edgeStyle=orthogonalEdgeStyle;rounded=0;orthogonalLoop=1;jettySize=auto;html=1;" edge="1" parent="WIyWlLk6GJQsqaUBKTNV-1" source="TVQA49H41wo21Bl08tr--0" target="-FxCyN68dRF82vUX0cnZ-5">
                    <mxGeometry relative="1" as="geometry"/>
                </mxCell>
                <mxCell id="TVQA49H41wo21Bl08tr--0" value="Filtrar bugs com idade &amp;gt;= limite" style="rounded=1;whiteSpace=wrap;html=1;fillColor=#dae8fc;strokeColor=#6c8ebf;fontColor=#000000;" parent="WIyWlLk6GJQsqaUBKTNV-1" vertex="1">
                    <mxGeometry x="140" y="250" width="120" height="60" as="geometry"/>
                </mxCell>
                <mxCell id="TVQA49H41wo21Bl08tr--14" value="" style="edgeStyle=orthogonalEdgeStyle;rounded=0;orthogonalLoop=1;jettySize=auto;html=1;" parent="WIyWlLk6GJQsqaUBKTNV-1" source="3" target="TVQA49H41wo21Bl08tr--13" edge="1">
                    <mxGeometry relative="1" as="geometry"/>
                </mxCell>
                <mxCell id="TVQA49H41wo21Bl08tr--10" value="&lt;span style=&quot;font-size: 10px&quot;&gt;Montar array de bugs com prazo vencido&lt;/span&gt;" style="rounded=1;whiteSpace=wrap;html=1;fillColor=#dae8fc;strokeColor=#6c8ebf;fontColor=#000000;" parent="WIyWlLk6GJQsqaUBKTNV-1" vertex="1">
                    <mxGeometry x="295" y="110" width="120" height="60" as="geometry"/>
                </mxCell>
                <mxCell id="TVQA49H41wo21Bl08tr--15" style="edgeStyle=orthogonalEdgeStyle;rounded=0;orthogonalLoop=1;jettySize=auto;html=1;exitX=1;exitY=0.5;exitDx=0;exitDy=0;entryX=0;entryY=0.5;entryDx=0;entryDy=0;" parent="WIyWlLk6GJQsqaUBKTNV-1" source="TVQA49H41wo21Bl08tr--11" target="WIyWlLk6GJQsqaUBKTNV-7" edge="1">
                    <mxGeometry relative="1" as="geometry"/>
                </mxCell>
                <mxCell id="TVQA49H41wo21Bl08tr--11" value="&lt;span style=&quot;font-size: 10px&quot;&gt;Montar&amp;nbsp;&lt;/span&gt;&lt;span style=&quot;font-size: 10px&quot;&gt;array&amp;nbsp;&lt;/span&gt;&lt;span style=&quot;font-size: 10px&quot;&gt;de bugs a serem resolvidos hoje&lt;/span&gt;" style="rounded=1;whiteSpace=wrap;html=1;fillColor=#dae8fc;strokeColor=#6c8ebf;fontColor=#000000;" parent="WIyWlLk6GJQsqaUBKTNV-1" vertex="1">
                    <mxGeometry x="295" y="390" width="120" height="60" as="geometry"/>
                </mxCell>
                <mxCell id="TVQA49H41wo21Bl08tr--16" value="" style="edgeStyle=orthogonalEdgeStyle;rounded=0;orthogonalLoop=1;jettySize=auto;html=1;" parent="WIyWlLk6GJQsqaUBKTNV-1" source="TVQA49H41wo21Bl08tr--13" target="-FxCyN68dRF82vUX0cnZ-19" edge="1">
                    <mxGeometry relative="1" as="geometry"/>
                </mxCell>
                <mxCell id="TVQA49H41wo21Bl08tr--13" value="&lt;font style=&quot;font-size: 11px&quot;&gt;Juntar arrays em hash&lt;/font&gt;" style="rhombus;whiteSpace=wrap;html=1;fillColor=#fff2cc;strokeColor=#d6b656;fontColor=#000000;" parent="WIyWlLk6GJQsqaUBKTNV-1" vertex="1">
                    <mxGeometry x="560" y="240" width="80" height="80" as="geometry"/>
                </mxCell>
                <mxCell id="TVQA49H41wo21Bl08tr--17" value="&lt;font&gt;&lt;font size=&quot;1&quot;&gt;resultado =&amp;nbsp;&lt;br&gt;&lt;div style=&quot;text-align: left&quot;&gt;&lt;span style=&quot;font-size: 8px&quot;&gt;{&lt;/span&gt;&lt;/div&gt;&lt;/font&gt;&lt;font style=&quot;font-size: 8px&quot;&gt;&lt;div style=&quot;text-align: left&quot;&gt;&lt;span&gt;&amp;nbsp; vencidos =&amp;gt; [...],&lt;/span&gt;&lt;/div&gt;&lt;div style=&quot;text-align: left&quot;&gt;&lt;span&gt;&amp;nbsp; hoje&amp;nbsp;&lt;/span&gt;=&amp;gt;&lt;span&gt;&amp;nbsp;[...]&lt;/span&gt;&lt;/div&gt;&lt;div style=&quot;text-align: left&quot;&gt;&lt;span&gt;}&lt;/span&gt;&lt;/div&gt;&lt;/font&gt;&lt;/font&gt;" style="shape=note;whiteSpace=wrap;html=1;backgroundOutline=1;darkOpacity=0.05;size=11;" parent="WIyWlLk6GJQsqaUBKTNV-1" vertex="1">
                    <mxGeometry x="460" y="240" width="70" height="70" as="geometry"/>
                </mxCell>
                <mxCell id="TVQA49H41wo21Bl08tr--18" value="" style="endArrow=none;dashed=1;html=1;dashPattern=1 3;strokeWidth=2;exitX=0;exitY=0.5;exitDx=0;exitDy=0;entryX=0;entryY=0;entryDx=70;entryDy=40.5;entryPerimeter=0;" parent="WIyWlLk6GJQsqaUBKTNV-1" source="TVQA49H41wo21Bl08tr--13" target="TVQA49H41wo21Bl08tr--17" edge="1">
                    <mxGeometry width="50" height="50" relative="1" as="geometry">
                        <mxPoint x="705" y="320" as="sourcePoint"/>
                        <mxPoint x="540" y="220" as="targetPoint"/>
                    </mxGeometry>
                </mxCell>
                <mxCell id="TVQA49H41wo21Bl08tr--22" value="" style="edgeStyle=orthogonalEdgeStyle;rounded=0;orthogonalLoop=1;jettySize=auto;html=1;" parent="WIyWlLk6GJQsqaUBKTNV-1" source="TVQA49H41wo21Bl08tr--19" target="WIyWlLk6GJQsqaUBKTNV-12" edge="1">
                    <mxGeometry relative="1" as="geometry"/>
                </mxCell>
                <mxCell id="TVQA49H41wo21Bl08tr--19" value="Transformar JSON&amp;nbsp; em objetos" style="whiteSpace=wrap;html=1;rounded=1;shadow=0;strokeColor=#6c8ebf;strokeWidth=1;fillColor=#dae8fc;glass=0;fontColor=#000000;" parent="WIyWlLk6GJQsqaUBKTNV-1" vertex="1">
                    <mxGeometry x="140" y="82.5" width="120" height="45" as="geometry"/>
                </mxCell>
                <mxCell id="3" value="Ordenar bugs por prior asc; idade desc" style="rounded=1;whiteSpace=wrap;html=1;fontSize=12;glass=0;strokeWidth=1;shadow=0;fillColor=#dae8fc;strokeColor=#6c8ebf;fontColor=#000000;" vertex="1" parent="WIyWlLk6GJQsqaUBKTNV-1">
                    <mxGeometry x="540" y="120" width="120" height="40" as="geometry"/>
                </mxCell>
                <mxCell id="4" value="" style="edgeStyle=orthogonalEdgeStyle;rounded=0;orthogonalLoop=1;jettySize=auto;html=1;" edge="1" parent="WIyWlLk6GJQsqaUBKTNV-1" source="TVQA49H41wo21Bl08tr--10" target="3">
                    <mxGeometry relative="1" as="geometry">
                        <mxPoint x="415" y="140.0344827586207" as="sourcePoint"/>
                        <mxPoint x="580.0344827586207" y="240.0344827586207" as="targetPoint"/>
                    </mxGeometry>
                </mxCell>
            </root>
        </mxGraphModel>
    </diagram>
</mxfile>